<svg width="129.2" height="80.5" viewBox="0 0 129.2 80.5" xmlns="http://www.w3.org/2000/svg"><g id="svgGroup" stroke-linecap="round" fill-rule="evenodd" font-size="9pt" stroke="#d9d9d9" stroke-width="0.25mm" fill="#d9d9d9" style="stroke:#d9d9d9;stroke-width:0.25mm;fill:#d9d9d9"><path d="M 0 0 L 6.3 0 L 6.3 58.8 L 7.3 58.8 Q 11.1 58.8 14.75 59.55 Q 18.4 60.3 22.1 61.4 Q 25.8 62.5 29.4 63.95 Q 33 65.4 36.6 66.8 Q 44.2 69.8 51.9 72.25 Q 59.6 74.7 67.4 74.7 Q 73.4 74.7 79.2 72.8 A 39.774 39.774 0 0 0 88.361 68.392 A 46.19 46.19 0 0 0 90.4 67 L 90.5 67 L 93.2 70.4 L 92.9 70.6 A 42.295 42.295 0 0 1 85.291 75.836 A 35.765 35.765 0 0 1 79.8 78.2 A 43.459 43.459 0 0 1 66.216 80.499 A 41.395 41.395 0 0 1 66 80.5 Q 60.9 80.5 55.9 79.5 Q 50.9 78.5 45.9 76.8 Q 40.9 75.2 36.05 73.2 Q 31.2 71.2 26.2 69.2 Q 22.7 67.8 19.2 66.5 Q 15.7 65.2 12.2 64.4 Q 9.7 63.8 7.2 63.75 Q 4.7 63.7 2.2 63.7 L 0 63.6 L 0 0 Z M 49.5 56.3 L 53.1 50.8 L 53.2 51.2 A 13.659 13.659 0 0 0 54.063 53.527 A 9.818 9.818 0 0 0 55.65 55.9 Q 57.3 57.7 59.3 58.75 Q 61.3 59.8 63.45 60.15 Q 65.373 60.463 66.936 60.496 A 17.219 17.219 0 0 0 67.3 60.5 A 13.902 13.902 0 0 0 69.268 60.349 Q 70.26 60.207 71.372 59.93 A 29.105 29.105 0 0 0 72.75 59.55 A 19.355 19.355 0 0 0 78.033 57.007 A 22.197 22.197 0 0 0 78.75 56.5 A 16.951 16.951 0 0 0 82.654 52.425 A 20.379 20.379 0 0 0 83.55 51 A 14.306 14.306 0 0 0 85.166 46.535 A 19.868 19.868 0 0 0 85.5 42.8 A 19.318 19.318 0 0 0 85.193 39.273 A 14.385 14.385 0 0 0 84.1 35.8 A 18.901 18.901 0 0 0 82.077 32.402 A 16.153 16.153 0 0 0 80.6 30.7 A 18.491 18.491 0 0 0 77.179 27.983 A 16.716 16.716 0 0 0 76.05 27.35 A 21.393 21.393 0 0 0 73.973 26.419 Q 72.923 26.018 71.947 25.794 A 12.332 12.332 0 0 0 71.5 25.7 Q 70.3 25.4 69.1 25.35 Q 67.9 25.3 66.7 25.3 L 53.7 25.2 L 59.7 0 L 88.4 0 L 88.4 6.6 L 62.7 6.5 L 59.7 18.7 L 63.7 18.7 Q 66 18.7 68.3 18.85 Q 70.6 19 72.9 19.6 Q 75.134 20.116 77.701 21.407 A 32.099 32.099 0 0 1 78.55 21.85 A 23.259 23.259 0 0 1 82.885 24.905 A 27.619 27.619 0 0 1 84.3 26.25 A 21.983 21.983 0 0 1 87.7 30.795 A 26.733 26.733 0 0 1 88.8 32.95 Q 90.6 36.9 90.6 42.2 A 21.885 21.885 0 0 1 89.107 50.3 A 21.032 21.032 0 0 1 88.75 51.15 Q 86.9 55.3 83.75 58.4 Q 80.6 61.5 76.4 63.25 Q 72.2 65 67.5 65 Q 65.4 65 63 64.55 Q 60.6 64.1 58.25 63.05 Q 55.9 62 53.7 60.45 A 18.492 18.492 0 0 1 50.389 57.436 A 21.254 21.254 0 0 1 49.7 56.6 L 49.5 56.3 Z M 118 47 L 92.8 47 L 92.8 44.4 L 122.1 0 L 124.3 0 L 124.3 40.5 L 129.2 40.5 L 129.2 47 L 124.3 47 L 124.3 63.8 L 118 63.9 L 118 47 Z M 30.3 8.3 L 30.3 5.7 L 30.4 5.7 Q 31.2 5.3 32.75 4.4 Q 34.3 3.5 36 2.5 A 49.314 49.314 0 0 1 38.063 1.349 A 40.19 40.19 0 0 1 39.25 0.75 A 17.936 17.936 0 0 1 39.883 0.458 Q 40.802 0.056 41.276 0.007 A 1.202 1.202 0 0 1 41.4 0 L 42.9 0 L 42.9 63.9 L 36.6 63.9 L 36.6 7.6 L 30.3 8.3 Z M 100 40.5 L 118 40.5 L 118 13.8 L 100 40.5 Z" vector-effect="non-scaling-stroke"/></g></svg>