<svg xmlns="http://www.w3.org/2000/svg" xmlns:xlink="http://www.w3.org/1999/xlink" version="1.1" id="Capa_1" x="0px" y="0px" viewBox="0 0 1299.2 328.9" style="enable-background:new 0 0 1299.2 328.9;" xml:space="preserve">
<style type="text/css">
	.st0, path{fill:#d9d9d9;}
</style>
<g>
	<g>
		<path class="st0" d="M104,220.4v-89.3H83.4v-22.9h49.1v112.2H104L104,220.4z" fill="#000000"/>
	</g>
	<g>
		<path class="st0" d="M239.6,137.2c0,9.8-5.3,18.4-14.1,23.2c12.3,5.1,20,15.8,20,28.3c0,20.2-17.9,33-45.9,33    s-45.9-12.6-45.9-32.5c0-12.8,8.3-23.7,21.3-28.8c-9.4-5.3-15.5-14.2-15.5-24c0-17.9,15.7-29.3,40-29.3    C224,107.2,239.6,118.8,239.6,137.2z M180.5,186.4c0,9.4,6.7,14.7,19,14.7s19.2-5.1,19.2-14.7c0-9.3-6.9-14.6-19.2-14.6    C187.2,171.8,180.5,177.1,180.5,186.4z M183.4,138.8c0,8,5.8,12.5,16.2,12.5s16.2-4.5,16.2-12.5c0-8.3-5.8-13-16.2-13    C189.1,125.9,183.4,130.5,183.4,138.8z" fill="#000000"/>
	</g>
	<g>
		<path class="st0" d="M292.9,120.9c4.7,14,7.1,28.6,7.1,43.5c0,74.8-60.8,135.6-135.6,135.6S28.9,239.2,28.9,164.4    S89.7,28.8,164.5,28.8c14.9,0,29.5,2.4,43.5,7.1V5.8C193.8,2,179.2,0,164.4,0C73.8,0,0,73.8,0,164.4s73.8,164.4,164.4,164.4    S328.8,255,328.8,164.4c0-14.8-2-29.4-5.8-43.5C323,120.9,292.9,120.9,292.9,120.9z" fill="#000000"/>
	</g>
	<g>
		<polygon class="st0" points="284.7,44.1 284.7,12.6 262,12.6 262,44.1 230.6,44.1 230.6,66.8 262,66.8 262,98.3 284.7,98.3     284.7,66.8 316.2,66.8 316.2,44.1   " fill="#000000"/>
	</g>
	<g>
		<g>
			<path d="M453.1,104h8.9v33.3c-8.2,7.4-20,11.1-32.1,11.1c-26.6,0-46.1-18.9-46.1-44.5c0-25.6,19.5-44.5,46.2-44.5     c13.2,0,24.7,4.2,32.5,12.6l-5.7,5.9c-7.4-7.2-16.1-10.2-26.3-10.2c-21.6,0-37.5,15.4-37.5,36.2c0,20.7,15.9,36.2,37.3,36.2     c8.4,0,16.1-1.9,22.9-6.7V104z" fill="#000000"/>
			<path d="M542.9,124.4h-48.7l-10.5,23.4h-9.6l40-87.4h9.1l40,87.4h-9.7L542.9,124.4z M539.5,116.9l-21-47l-21,47H539.5z" fill="#000000"/>
			<path d="M668.4,60.3v87.4h-8.9V77.8l-34.3,58.8h-4.4l-34.3-58.4v69.6h-8.9V60.3h7.6l38,64.8l37.6-64.8H668.4z" fill="#000000"/>
			<path d="M769.9,124.4c0,14.9-11,23.4-32.8,23.4h-40.2V60.3h37.7c19.5,0,30.7,8.2,30.7,22.5c0,10-5.4,16.6-13.4,19.9     C763.2,105.2,769.9,112.5,769.9,124.4z M706.1,67.9v31.7H734c14,0,22.1-5.4,22.1-15.9s-8.1-15.9-22.1-15.9H706.1z M760.7,123.6     c0-11.4-8.4-16.4-23.7-16.4h-30.8v32.8H737C752.3,140.1,760.7,135.1,760.7,123.6z" fill="#000000"/>
			<path d="M791,60.3h9.2v79.4h49v8H791V60.3z" fill="#000000"/>
			<path d="M926.4,139.8v8h-61.8V60.3h59.9v8h-50.7v31.1H919v7.9h-45.2v32.5H926.4z" fill="#000000"/>
		</g>
		<g>
			<path d="M443.4,282.5l-16.9-24.4h-1h-17.6v24.4h-20.2v-87.4h37.8c23.4,0,38,12.1,38,31.7c0,13.1-6.6,22.7-18,27.6l19.6,28.1     H443.4z M424.4,211.6h-16.5v30.5h16.5c12.4,0,18.6-5.7,18.6-15.2C443,217.2,436.7,211.6,424.4,211.6z" fill="#000000"/>
			<path d="M547.1,266.3v16.2h-67.7v-87.4h66.1v16.2h-46v19h40.6v15.7h-40.6v20.2H547.1z" fill="#000000"/>
			<path d="M556.4,273.9l6.9-15.2c7.4,5.4,18.4,9.1,28.8,9.1c12,0,16.9-4,16.9-9.4c0-16.4-50.8-5.1-50.8-37.6     c0-14.9,12-27.2,36.8-27.2c11,0,22.2,2.6,30.3,7.7l-6.2,15.4c-8.1-4.6-16.5-6.9-24.2-6.9c-12,0-16.6,4.5-16.6,10     c0,16.1,50.8,5,50.8,37.1c0,14.6-12.1,27.1-37.1,27.1C578.1,284,564.1,279.9,556.4,273.9z" fill="#000000"/>
			<path d="M718.7,226.8c0,19.5-14.6,31.6-38,31.6h-17.6v24.1h-20.2v-87.4h37.8C704.1,195.1,718.7,207.2,718.7,226.8z M698.2,226.8     c0-9.6-6.2-15.2-18.6-15.2h-16.5v30.3h16.5C692,241.9,698.2,236.3,698.2,226.8z" fill="#000000"/>
			<path d="M728.8,238.8c0-26,20.2-45.2,47.8-45.2c27.5,0,47.8,19.1,47.8,45.2S804.1,284,776.7,284     C749.1,284,728.8,264.8,728.8,238.8z M804,238.8c0-16.6-11.7-28-27.3-28c-15.6,0-27.3,11.4-27.3,28c0,16.6,11.7,28,27.3,28     C792.3,266.8,804,255.4,804,238.8z" fill="#000000"/>
			<path d="M919.9,195.1v87.4h-16.6l-43.6-53.1v53.1h-20v-87.4h16.7l43.5,53.1v-53.1H919.9z" fill="#000000"/>
			<path d="M933.8,273.9l6.9-15.2c7.4,5.4,18.4,9.1,28.8,9.1c12,0,16.9-4,16.9-9.4c0-16.4-50.8-5.1-50.8-37.6     c0-14.9,12-27.2,36.8-27.2c11,0,22.2,2.6,30.3,7.7l-6.2,15.4c-8.1-4.6-16.5-6.9-24.2-6.9c-12,0-16.6,4.5-16.6,10     c0,16.1,50.8,5,50.8,37.1c0,14.6-12.1,27.1-37.1,27.1C955.5,284,941.5,279.9,933.8,273.9z" fill="#000000"/>
			<path d="M1020.3,195.1h20.2v87.4h-20.2V195.1z" fill="#000000"/>
			<path d="M1141.4,258.7c0,15.1-12,23.9-35,23.9h-45.2v-87.4h42.7c21.9,0,33.1,9.1,33.1,22.7c0,8.7-4.5,15.5-11.6,19.2     C1135.2,240.2,1141.4,247.7,1141.4,258.7z M1081.4,210.3v20.6h20.1c9.9,0,15.2-3.5,15.2-10.4s-5.4-10.2-15.2-10.2H1081.4z      M1121.1,256.5c0-7.4-5.6-10.9-16.1-10.9h-23.6v21.6h23.6C1115.5,267.3,1121.1,264,1121.1,256.5z" fill="#000000"/>
			<path d="M1156.8,195.1h20.2V266h43.8v16.5h-64.1V195.1z" fill="#000000"/>
			<path d="M1265.2,251.6v31H1245v-31.2l-33.8-56.2h21.5l23.4,38.8l23.4-38.8h19.9L1265.2,251.6z" fill="#000000"/>
		</g>
	</g>
</g>
</svg>