<?xml version="1.0"?>
<svg xmlns="http://www.w3.org/2000/svg" viewBox="0 0 50 50">
    <path d="M 34 3 C 27.934 3 25.112641 6.0967344 24.181641 7.4277344 C 23.143641 8.9097344 23 10.02 23 11 C 23 12.654 24.346 14 26 14 C 26.994 14 27.920672 13.508766 28.513672 12.634766 C 28.513672 12.634766 28.610594 12.471687 28.683594 12.304688 C 28.715594 12.230688 28.751781 12.138719 28.800781 12.011719 C 28.854781 11.868719 28.929828 11.670812 29.048828 11.382812 C 29.300828 10.774812 29.787437 10.031578 30.398438 9.7675781 C 31.272437 9.3885781 32.384 9 34 9 C 36.245 9 37.89625 9.6851562 38.90625 11.035156 C 40.21425 12.783156 40.151016 15.24275 39.791016 16.46875 C 38.983016 19.21375 36.582422 20.567203 31.732422 20.908203 C 31.904422 21.562203 32 22.259 32 23 C 32 24.614 31.643359 25.924844 31.068359 26.964844 C 36.571697 26.703637 40.237527 24.401922 41.925781 20.220703 C 41.167274 27.637997 33.593556 31 28.125 31 C 26.784 31 26.310484 31.664547 26.146484 32.060547 C 25.650484 33.256547 26.783969 34.572031 27.292969 35.082031 C 28.269969 36.059031 29.234734 36.695313 29.427734 36.820312 C 29.767734 37.073313 32.178375 38.778844 37.734375 40.589844 L 42.734375 41.964844 C 42.823375 41.988844 42.913953 42 43.001953 42 C 43.439953 42 43.842844 41.708625 43.964844 41.265625 C 44.110844 40.732625 43.797625 40.181156 43.265625 40.035156 L 38.310547 38.675781 C 36.161547 37.974781 34.513641 37.29075 33.306641 36.71875 C 41.046641 35.38575 48 29.356 48 19 C 48 5.776 40.387 3 34 3 z M 17.65625 15.015625 C 15.250625 15.133422 12.304125 16.2205 9.328125 18.90625 L 9.2890625 18.921875 C 9.2540625 18.957875 9.2273594 18.992344 9.1933594 19.027344 C 8.4533594 19.707344 7.7125156 20.474281 6.9785156 21.363281 C 4.9235156 23.851281 4.7113906 26.331484 4.5253906 28.521484 C 4.4213906 29.750484 4.3236875 30.913828 3.9296875 32.048828 C 2.8546875 35.152828 2.0379063 43.548297 2.0039062 43.904297 C 1.9549063 44.414297 2.2987812 44.879469 2.8007812 44.980469 C 2.8677813 44.994469 2.9359531 45 3.0019531 45 C 3.4309531 45 3.821125 44.722828 3.953125 44.298828 C 4.377125 42.943828 5.1289219 41.607203 5.6699219 41.158203 C 5.6739219 41.161203 5.6795938 41.163969 5.6835938 41.167969 C 5.8105937 41.280969 5.9580469 41.388234 6.1230469 41.490234 C 6.1270469 41.493234 6.1297656 41.495047 6.1347656 41.498047 L 6.1367188 41.498047 C 6.1367188 41.498047 6.1386719 41.5 6.1386719 41.5 L 6.1347656 41.5 C 6.1217656 41.523 6.1114688 41.541687 6.1054688 41.554688 C 5.8634688 42.038688 6.0571563 42.614141 6.5351562 42.869141 C 6.6811562 42.948141 6.8410469 42.986328 6.9980469 42.986328 C 7.3520469 42.986328 7.6968125 42.798656 7.8828125 42.472656 C 7.9028125 42.438656 8.2025469 41.962547 9.0605469 41.560547 C 9.2685469 42.692547 10.12 44 12 44 C 12.33 44 12.650844 43.976359 12.964844 43.943359 C 13.073844 43.932359 13.178156 43.916344 13.285156 43.902344 C 13.490156 43.873344 13.690672 43.840781 13.888672 43.800781 C 14.009672 43.776781 14.132 43.754562 14.25 43.726562 C 14.472 43.673563 14.688438 43.615734 14.898438 43.552734 C 14.899437 43.550734 14.901344 43.550828 14.902344 43.548828 C 16.534344 43.056828 17.817531 42.282469 18.519531 41.855469 C 21.637531 39.958469 25.197406 41.701656 29.316406 43.722656 C 31.994406 45.035656 34.763547 46.392422 37.810547 46.982422 C 37.874547 46.993422 37.938953 47 38.001953 47 C 38.471953 47 38.889469 46.667453 38.980469 46.189453 C 39.086469 45.647453 38.731453 45.122578 38.189453 45.017578 C 35.403453 44.478578 32.755313 43.181781 30.195312 41.925781 C 27.284312 40.498781 24.478188 39.131922 21.742188 39.044922 C 21.901188 38.734922 22 38.394 22 38 C 22 37.609956 21.969268 37.29095 21.927734 37 C 22.830722 37.00029 23.763978 37.001953 23.9375 37.001953 C 24.5245 37.001953 25 36.553953 25 36.001953 C 25 35.448953 24.833 35.020953 23.75 34.626953 C 22.375 34.126953 22 32.001953 22 31.001953 C 22 27.391772 18.936644 27.131451 18.171875 29.720703 C 18.123446 29.703802 18.077221 29.685617 18.027344 29.669922 C 17.946344 29.643922 17.861344 29.621656 17.777344 29.597656 C 17.640344 29.558656 17.503328 29.519375 17.361328 29.484375 C 17.271328 29.462375 17.179891 29.442875 17.087891 29.421875 C 17.068561 29.417579 17.048637 29.41438 17.029297 29.410156 C 17.17613 25.553945 18.673163 25 20 25 C 20.993 25 21.479344 25.486156 22.152344 26.160156 C 22.971344 26.979156 23.99 28 26 28 C 27.485 28 30 26.947 30 23 C 30 19.559 27.520406 17.398594 23.316406 17.058594 C 22.375406 17.000594 22.117 17 22 17 C 16.552 17 11 21.542 11 26 C 11 26.218 10.996188 26.404891 10.992188 26.587891 C 10.990849 26.646784 10.988266 26.704031 10.986328 26.761719 C 10.486188 26.345465 9.8280177 26.081585 9.0605469 26.025391 C 9.0415469 25.835391 9.0291094 25.642609 9.0371094 25.474609 C 9.3811094 20.715609 14.315281 16.166266 19.863281 15.197266 C 19.200781 15.044766 18.458125 14.976359 17.65625 15.015625 z M 12 33.125 L 6.5 38 C 5.625 37.125 5.848 35.07 7.625 34.375 C 10.5 33.25 12 33.125 12 33.125 z M 8.25 34.875 C 8.25 34.875 7.625 35 7.125 35.5 C 6.625 36 6.75 36.875 6.75 36.875 L 8.25 34.875 z M 14 35.994141 C 14.553 35.994141 15 36.442141 15 36.994141 C 15 37.533141 14.572063 37.973141 14.039062 37.994141 C 14.015063 38.144141 14.005047 38.379156 13.998047 38.535156 C 13.970047 39.207156 13.896953 40.992141 12.001953 40.994141 C 11.633953 40.994141 11.310859 41.020688 11.005859 41.054688 L 11.005859 41.050781 C 10.974859 41.053781 10.948969 41.0595 10.917969 41.0625 C 10.783969 41.0785 10.65425 41.097141 10.53125 41.119141 C 10.42625 41.137141 10.325516 41.156734 10.228516 41.177734 C 10.177516 41.188734 10.126125 41.198938 10.078125 41.210938 C 9.935125 41.244937 9.8017813 41.282266 9.6757812 41.322266 C 9.6737812 41.323266 9.6719219 41.323219 9.6699219 41.324219 C 9.4439219 41.396219 9.2365469 41.473641 9.0605469 41.556641 C 9.1255469 41.368641 9.125 41 9.125 41 C 9.125 40.448 8.678 40 8.125 40 L 8 40 C 7.908 40 7.844625 39.980703 7.765625 39.970703 C 8.664625 39.451703 9.9989375 39.002141 11.960938 38.994141 C 11.984937 38.844141 11.994953 38.609125 12.001953 38.453125 C 12.029953 37.781125 12.104 35.994141 14 35.994141 z"/>
</svg>
