<svg xmlns="http://www.w3.org/2000/svg" data-name="Layer 1" viewBox="0 0 100 125" x="0px" y="0px">
  <path d="M66,88.71H34l16-16ZM50,18.36,30.74,37.61l-9.23,9.23a11.15,11.15,0,0,0,0,15.73,11.13,11.13,0,0,0,15.72,0l9.23-9.23L50,49.8l3.54,3.54,9.23,9.23a11.13,11.13,0,0,0,15.72,0,11.15,11.15,0,0,0,0-15.73l-9.23-9.23L50,18.36m0-7.07L72.79,34.08h0L82,43.31A16.1,16.1,0,0,1,82,66.1h0a16.11,16.11,0,0,1-22.79,0L50,56.87,40.77,66.1A16.11,16.11,0,0,1,18,66.1h0a16.1,16.1,0,0,1,0-22.79l9.23-9.23h0L50,11.29Z" />
</svg>