<svg xmlns="http://www.w3.org/2000/svg" xmlns:xlink="http://www.w3.org/1999/xlink" version="1.1" x="0px" y="0px" viewBox="0 0 85.04 106.30000000000001" enable-background="new 0 0 85.04 85.04" xml:space="preserve"><g><path d="M53.822,26.035c-0.484-0.482-1.072-0.725-1.764-0.725H32.982c-0.691,0-1.279,0.242-1.764,0.725   c-0.482,0.484-0.725,1.072-0.725,1.762v29.446c0,0.691,0.242,1.281,0.725,1.764c0.484,0.484,1.072,0.725,1.764,0.725h19.076   c0.691,0,1.279-0.24,1.764-0.725c0.484-0.482,0.725-1.072,0.725-1.764V27.796C54.547,27.107,54.307,26.519,53.822,26.035z    M53.305,57.242c0,0.361-0.117,0.658-0.354,0.893c-0.234,0.234-0.531,0.354-0.893,0.354H32.982c-0.359,0-0.658-0.119-0.893-0.354   s-0.352-0.531-0.352-0.893V27.796c0-0.357,0.117-0.656,0.352-0.889c0.234-0.236,0.533-0.354,0.893-0.354h19.076   c0.361,0,0.658,0.117,0.893,0.354c0.236,0.232,0.354,0.531,0.354,0.889V57.242z"/><path d="M48.846,39.222c-0.096-0.123-0.283-0.324-0.561-0.6c-0.277-0.277-0.455-0.471-0.539-0.582   c-0.387-0.496-0.691-0.746-0.912-0.746c-0.193,0-0.484,0.07-0.871,0.207c-0.387,0.139-0.869,0.326-1.451,0.561   c-0.58,0.236-1.051,0.408-1.41,0.518c0.055-0.605,0.152-1.104,0.291-1.492c0.137-0.387,0.27-0.637,0.395-0.746   c0.125-0.111,0.234-0.229,0.33-0.354c0.1-0.123,0.146-0.27,0.146-0.436c0-0.387-0.264-0.924-0.787-1.617   c-0.525-0.689-1.064-1.146-1.619-1.367c-1.051,0.746-1.576,1.436-1.576,2.074c0,0.082,0.027,0.199,0.082,0.352   c0.057,0.152,0.086,0.256,0.086,0.311c0.166,0,0.316,0.049,0.455,0.146s0.242,0.234,0.311,0.414s0.133,0.346,0.188,0.496   c0.055,0.154,0.096,0.375,0.123,0.664c0.027,0.291,0.049,0.512,0.062,0.664s0.021,0.393,0.021,0.725c0,0.334,0,0.539,0,0.623   c-0.111,0.111-0.65,0.346-1.617,0.705c-0.971,0.359-1.535,0.539-1.699,0.539c-0.168,0-0.369-0.084-0.604-0.25   c-0.234-0.164-0.51-0.387-0.828-0.662c-0.32-0.275-0.59-0.484-0.811-0.621c-0.221,0.248-0.33,0.719-0.33,1.408   c0,0.471,0.523,1.162,1.576,2.074c1.049,0.912,1.576,1.492,1.576,1.742c0,0.415,0.107,0.622,0.33,0.622   c0.332,0,0.762-0.088,1.287-0.268c0.523-0.182,0.896-0.27,1.119-0.27c0,0.441,0.014,1.139,0.041,2.092   c0.027,0.955,0.043,1.584,0.043,1.889c0,0.525-0.016,1.105-0.043,1.742c-0.027,0.635-0.041,1.051-0.041,1.244   c0,1.852,0.166,2.916,0.498,3.193c0.221-0.223,0.428-0.691,0.621-1.41c0.193-0.721,0.291-1.438,0.291-2.158   c0-0.303-0.027-0.883-0.084-1.74c-0.055-0.855-0.082-1.383-0.082-1.576c0-0.111,0.014-0.629,0.041-1.557   c0.027-0.926,0.041-1.512,0.041-1.76c0.664,0.025,1.211,0.08,1.639,0.164c0.43,0.084,0.711,0.125,0.852,0.125   c0.387,0,0.58-0.248,0.58-0.747c0-0.111,0.096-0.291,0.291-0.539c0.191-0.25,0.447-0.58,0.766-0.996   c0.318-0.414,0.572-0.773,0.768-1.078c0.25-0.193,0.635-0.291,1.162-0.291c0.219,0,0.33-0.125,0.33-0.373   c0-0.166-0.055-0.354-0.166-0.561C49.047,39.515,48.941,39.347,48.846,39.222z M41.609,43.142   c-0.443,0.111-0.885,0.193-1.328,0.248c-0.387-0.801-0.883-1.629-1.494-2.488c0.113,0.057,0.223,0.084,0.334,0.084   c0.139,0,0.338-0.047,0.602-0.145c0.262-0.096,0.58-0.234,0.953-0.416c0.373-0.178,0.684-0.311,0.934-0.395V43.142z M46.213,40.013   c-0.084,0.234-0.215,0.496-0.395,0.787c-0.182,0.291-0.34,0.539-0.477,0.746c-0.139,0.207-0.332,0.484-0.582,0.828   c-0.248,0.346-0.414,0.574-0.496,0.686c-0.223,0-0.469-0.006-0.748-0.021c-0.275-0.014-0.471-0.02-0.58-0.02   c0-0.996,0.057-2.158,0.166-3.484c1.105-0.414,1.965-0.623,2.57-0.623c0.443,0,0.664,0.166,0.664,0.498   C46.336,39.576,46.297,39.777,46.213,40.013z"/></g></svg>