<svg xmlns="http://www.w3.org/2000/svg" xmlns:xlink="http://www.w3.org/1999/xlink" version="1.1" x="0px" y="0px" viewBox="0 0 126.017 154.9975" style="enable-background:new 0 0 126.017 123.998;" xml:space="preserve"><g><path d="M116.507,0H71.786c-5.249,0-9.52,4.266-9.52,9.51v75.34v7.675l-5.624-61.237c-0.48-5.225-5.132-9.073-10.348-8.604   L8.633,26.175c-5.217,0.49-9.071,5.132-8.593,10.347l6.04,65.681c0,0,0,0.001,0,0.001l0.204,2.221   c0.001,0.007-0.003,0.014-0.002,0.021c0.002,0.022,0.007,0.042,0.01,0.064l0.818,8.913c0.287,3.11,1.767,5.919,4.166,7.909   c2.097,1.739,4.677,2.667,7.361,2.667c0.365,0,0.732-0.018,1.101-0.052l33.48-3.101c6.371-0.591,11.074-6.277,10.484-12.678   l-0.545-5.932c1.884,4.846,6.572,8.294,12.058,8.294h37.859c7.136,0,12.94-5.832,12.94-13V84.85V9.51   C126.017,4.266,121.751,0,116.507,0z M64.267,9.51c0-4.141,3.373-7.51,7.52-7.51h44.721c4.141,0,7.51,3.369,7.51,7.51v75.34v3.48   c0,4.141-3.369,7.51-7.51,7.51H71.786c-4.146,0-7.52-3.369-7.52-7.51v-3.48V9.51z M2.032,36.338   c-0.379-4.118,2.667-7.784,6.786-8.172l37.66-3.49c4.136-0.375,7.793,2.671,8.172,6.796l6.03,65.66c0,0,0,0.001,0,0.001   l0.228,2.482c0,0.003-0.002,0.006-0.002,0.01c0.178,4.007-2.815,7.442-6.813,7.82l-37.661,3.489   c-4.037,0.38-7.681-2.589-8.151-6.622l-0.21-2.291c0,0,0,0,0-0.001c0,0,0-0.001,0-0.001L2.032,36.338z"/><path d="M84.09,54.82l0.222,2.171c0.002,0.018,0.012,0.033,0.015,0.051l0.947,9.271c0,0.011-0.005,0.02-0.004,0.031   c0.001,0.015,0.01,0.027,0.011,0.042l0.48,4.701c0,0.003-0.001,0.006-0.001,0.009c0,0.004,0.003,0.008,0.003,0.012l1.278,12.515   c0.008,0.074,0.039,0.137,0.061,0.205c0.016,0.047,0.02,0.099,0.042,0.142c0.034,0.068,0.086,0.121,0.133,0.178   c0.03,0.036,0.051,0.079,0.086,0.111c0.059,0.053,0.13,0.088,0.2,0.126c0.037,0.02,0.067,0.05,0.107,0.066   c0.114,0.045,0.237,0.07,0.365,0.07c0.024,0,0.05-0.001,0.075-0.003l0.024-0.002c0.001,0,0.002,0,0.003,0c0,0,0,0,0,0l4.174-0.311   l-0.231,2.265c0,0.005,0.002,0.01,0.001,0.015c0,0.004-0.003,0.008-0.003,0.012c-0.004,0.06,0.016,0.114,0.022,0.172   c0.007,0.071,0.005,0.143,0.026,0.209c0.019,0.06,0.057,0.109,0.087,0.163c0.032,0.058,0.055,0.121,0.098,0.171   c0.039,0.046,0.091,0.076,0.138,0.115c0.052,0.044,0.099,0.094,0.16,0.126c0.052,0.028,0.115,0.035,0.173,0.054   c0.064,0.02,0.123,0.053,0.192,0.06c0.008,0.001,0.016,0.001,0.025,0.001c0.001,0,0.002,0.001,0.003,0.001l8.983,0.668c0,0,0,0,0,0   c0.001,0,0.002,0,0.003,0l0.024,0.002c0.025,0.002,0.051,0.003,0.075,0.003c0.128,0,0.251-0.025,0.365-0.07   c0.039-0.016,0.07-0.045,0.107-0.066c0.07-0.038,0.141-0.073,0.2-0.126c0.035-0.032,0.056-0.075,0.086-0.111   c0.048-0.057,0.099-0.111,0.133-0.178c0.022-0.044,0.027-0.095,0.042-0.142c0.022-0.068,0.053-0.131,0.061-0.205l2.521-24.678   c0,0,0,0,0,0s0,0,0,0l0.196-1.916c2.783-0.211,11.219-1.485,16.901-9.153c0.257-0.347,0.262-0.819,0.014-1.172   c-0.248-0.352-0.693-0.505-1.107-0.381c-0.285,0.086-3.728,1.142-7.551,2.766c3.51-3.061,7.09-7.68,8.45-14.349   c0.084-0.409-0.096-0.827-0.45-1.049c-0.353-0.221-0.809-0.2-1.139,0.056c-0.491,0.378-9.692,7.504-14.189,14.194l1.964-19.218   c0-0.001,0-0.002,0-0.004c0,0,0-0.001,0-0.001l0.379-3.673c0.028-0.269-0.054-0.538-0.227-0.745   c-0.174-0.208-0.424-0.337-0.693-0.356l-9-0.67c-0.537-0.04-1.014,0.356-1.069,0.896l-0.379,3.662c0,0.001,0,0.001,0,0.002   c0,0.001-0.001,0.002-0.001,0.004l-2.086,20.407l-1.412-13.766c0-0.005,0.002-0.009,0.002-0.014c0-0.006-0.004-0.012-0.005-0.018   l-0.426-4.15c0-0.001,0-0.001,0-0.002c0-0.001-0.001-0.002-0.001-0.002l-1.091-10.634c0,0,0-0.001,0-0.001l-0.4-3.967   c-0.054-0.539-0.532-0.933-1.07-0.896l-9.729,0.73c-0.27,0.021-0.519,0.148-0.692,0.355c-0.173,0.208-0.255,0.477-0.228,0.745   l0.41,3.967c0,0,0,0,0,0c0,0,0,0.001,0,0.001l2.155,21.083C78.35,38.111,68.172,30.23,67.636,29.817   c-0.331-0.254-0.785-0.275-1.139-0.056c-0.354,0.222-0.534,0.64-0.45,1.049c1.518,7.443,5.602,12.513,9.51,15.804   c-4.315-1.869-8.321-3.095-8.64-3.192c-0.413-0.126-0.859,0.027-1.107,0.382c-0.249,0.353-0.243,0.825,0.015,1.171   C71.992,53.285,81.178,54.609,84.09,54.82z M83.947,33.751l-0.982-9.611l7.724-0.58l0.002,0.02c0,0,0,0,0,0.001   c0,0.001,0,0.001,0,0.002l0.984,9.587L83.947,33.751z M92.308,39.33l1.196,11.65l-7.736,0.581l-1.191-11.65L92.308,39.33z    M105.402,44.949l-7.005-0.529l0.19-1.861l7.006,0.52L105.402,44.949z M99.687,31.81l7.004,0.53l-0.894,8.751l-7.006-0.522   L99.687,31.81z M98.194,46.41l7.005,0.529l-1.086,10.63l-7.006-0.529L98.194,46.41z M101.191,86.171l-7.015-0.522l0.979-9.589   l7.015,0.53L101.191,86.171z M95.806,69.678l0.392-3.839c0.012-0.045,0.02-0.092,0.024-0.14l0.277-2.71l7.007,0.522l-0.683,6.69   L95.806,69.678z M94.612,61.776l-0.295,2.888l-7.146,0.535l-0.755-7.389l7.729-0.58L94.612,61.776z M88.932,82.451l-1.073-10.511   l5.75-0.434l-1.09,10.68L88.932,82.451z M119.748,40.994c-2.806,8.149-9.426,12.442-12.746,14.148   C109.229,50.256,116.073,44.081,119.748,40.994z M68.779,33.317c3.964,3.313,11.751,10.279,14.107,15.707   C79.326,47.24,71.822,42.519,68.779,33.317z"/><path d="M12.817,57.229c0.75,0.583,1.648,0.888,2.571,0.888c0.361,0,0.727-0.046,1.088-0.142c3.912-1.049,7.936-1.781,11.905-2.202   l3.9,42.448c0.048,0.519,0.484,0.908,0.995,0.908c0.03,0,0.062-0.001,0.093-0.004c0.55-0.051,0.954-0.537,0.904-1.088l-3.9-42.443   c4-0.319,8.063-0.342,12.094-0.038c1.317,0.101,2.578-0.398,3.459-1.386c0.888-0.995,1.25-2.319,0.992-3.63l-0.949-4.921   c-0.352-1.825-1.834-3.193-3.691-3.404c-4.357-0.482-8.775-0.535-13.152-0.198l-0.443-4.819c-0.051-0.55-0.545-0.954-1.087-0.905   c-0.551,0.051-0.955,0.537-0.905,1.087l0.443,4.821c-4.351,0.47-8.685,1.334-12.903,2.612c-1.777,0.55-2.988,2.166-3.014,4.029   l-0.03,5.008C11.175,55.183,11.769,56.414,12.817,57.229z M34.55,43.79c2.51,0,5.018,0.139,7.504,0.413   c0.981,0.112,1.766,0.833,1.951,1.796l0.95,4.924c0.137,0.694-0.054,1.393-0.521,1.917c-0.461,0.515-1.119,0.776-1.812,0.723   c-4.146-0.313-8.321-0.289-12.432,0.04l-0.882-9.596C31.051,43.873,32.8,43.79,34.55,43.79z M13.217,48.863   c0.014-0.986,0.658-1.846,1.6-2.137c4.083-1.237,8.284-2.076,12.5-2.532l0.881,9.593c-4.13,0.437-8.243,1.185-12.236,2.256   c-0.671,0.176-1.369,0.034-1.918-0.393c-0.551-0.429-0.864-1.078-0.857-1.784L13.217,48.863z"/></g></svg>